<svg width="121" height="32" viewBox="0 0 121 32" fill="none" xmlns="http://www.w3.org/2000/svg">
<g clip-path="url(#clip0_2_77)">
<path d="M120.797 0.202789H0.20282V31.7972H120.797V0.202789Z" fill="white"/>
<path d="M121 32H0V0H121V32ZM0.405632 31.5944H120.594V0.405577H0.405632V31.5944Z" fill="#333A4E"/>
<path d="M16.4957 13.8031C16.1577 12.9108 15.5898 12.1943 14.8056 11.6536C14.0214 11.1263 13.0884 10.8559 12.0067 10.8559C11.0602 10.8559 10.2084 11.0722 9.45123 11.5184C8.69405 11.9645 8.0856 12.5864 7.63941 13.4111C7.19321 14.2222 6.97688 15.1821 6.97688 16.2771C6.97688 17.3722 7.19321 18.3185 7.63941 19.1432C8.0856 19.9544 8.68053 20.5898 9.45123 21.0224C10.2084 21.455 11.0602 21.6848 12.0067 21.6848C12.9126 21.6848 13.7374 21.482 14.4811 21.0765C15.2247 20.6709 15.8061 20.0896 16.2523 19.3325C16.6985 18.5754 16.9419 17.6967 16.9825 16.6827H11.6416V16.0338H17.7532V16.5475C17.7126 17.6561 17.4557 18.6565 16.9554 19.5488C16.4551 20.4411 15.7791 21.1305 14.9137 21.6307C14.0484 22.131 13.0749 22.3743 12.0067 22.3743C10.9115 22.3743 9.91095 22.1174 9.03208 21.6037C8.13969 21.09 7.45011 20.3599 6.94984 19.4406C6.44956 18.5213 6.20618 17.4668 6.20618 16.3042C6.20618 15.128 6.44956 14.0735 6.94984 13.1407C7.45011 12.2214 8.13969 11.4913 9.03208 10.9776C9.92447 10.4639 10.9115 10.207 12.0067 10.207C13.2912 10.207 14.3999 10.5315 15.3329 11.1669C16.2658 11.8023 16.9554 12.6945 17.3881 13.8302H16.4957V13.8031Z" fill="#333A4E"/>
<path d="M26.5283 22.2391L23.459 17.1424H23.3914H20.8359V22.2391H20.0652V10.2881H23.3509C24.6759 10.2881 25.6765 10.5991 26.339 11.2209C27.0016 11.8428 27.3396 12.681 27.3396 13.7085C27.3396 14.6278 27.0827 15.3849 26.5689 15.9797C26.0551 16.5746 25.2979 16.9396 24.3109 17.0748L27.4477 22.2391H26.5283ZM20.8359 16.4934H23.3914C24.4461 16.4934 25.2303 16.2366 25.7576 15.7228C26.2849 15.2091 26.5418 14.5332 26.5418 13.695C26.5418 11.8699 25.4737 10.9506 23.3509 10.9506H20.8359V16.4934Z" fill="#333A4E"/>
<path d="M30.3954 10.9235V15.9121H35.1683V16.561H30.3954V21.5902H35.6821V22.2391H29.6382V10.2881H35.6821V10.937H30.3954V10.9235Z" fill="#333A4E"/>
<path d="M47.824 13.8031C47.486 12.9108 46.9181 12.1943 46.1339 11.6536C45.3497 11.1263 44.4167 10.8559 43.335 10.8559C42.3885 10.8559 41.5367 11.0722 40.7795 11.5184C40.0224 11.9645 39.4139 12.5864 38.9677 13.4111C38.5215 14.2222 38.3052 15.1821 38.3052 16.2771C38.3052 17.3722 38.5215 18.3185 38.9677 19.1432C39.4139 19.9544 40.0088 20.5898 40.7795 21.0224C41.5367 21.455 42.3885 21.6848 43.335 21.6848C44.2409 21.6848 45.0657 21.482 45.8094 21.0765C46.553 20.6709 47.1344 20.0896 47.5806 19.3325C48.0268 18.5754 48.2702 17.6967 48.3108 16.6827H42.9835V16.0338H49.0815V16.5475C49.0409 17.6561 48.784 18.6565 48.2837 19.5488C47.7835 20.4411 47.1074 21.1305 46.242 21.6307C45.3767 22.131 44.4032 22.3743 43.335 22.3743C42.2398 22.3743 41.2393 22.1174 40.3604 21.6037C39.468 21.09 38.7784 20.3599 38.2781 19.4406C37.7779 18.5213 37.5345 17.4668 37.5345 16.3042C37.5345 15.128 37.7779 14.0735 38.2781 13.1407C38.7784 12.2214 39.468 11.4913 40.3604 10.9776C41.2528 10.4639 42.2398 10.207 43.335 10.207C44.6195 10.207 45.7282 10.5315 46.6612 11.1669C47.5942 11.8023 48.2837 12.6945 48.7164 13.8302H47.824V13.8031Z" fill="#333A4E"/>
<path d="M63.1164 17.0748C63.5896 17.6291 63.8194 18.278 63.8194 19.0351C63.8194 19.6434 63.6707 20.1977 63.3868 20.6844C63.1028 21.1711 62.6702 21.5496 62.0888 21.82C61.5209 22.1039 60.8178 22.2391 60.0065 22.2391H56.2071V10.2881H59.9389C61.1288 10.2881 62.0347 10.5585 62.6431 11.1128C63.2516 11.6671 63.549 12.3701 63.549 13.2488C63.549 14.0059 63.3462 14.6278 62.9406 15.101C62.5349 15.5741 62.0076 15.8986 61.3721 16.0608C62.0617 16.1825 62.6431 16.5205 63.1164 17.0748ZM56.9643 15.7228H59.9659C60.8583 15.7228 61.5479 15.5065 62.0347 15.0874C62.5214 14.6683 62.7648 14.0735 62.7648 13.3299C62.7648 12.5999 62.5214 12.0321 62.0482 11.613C61.575 11.1939 60.8448 10.9776 59.8848 10.9776H56.9778V15.7228H56.9643ZM62.224 20.8872C62.7783 20.4275 63.0487 19.7921 63.0487 18.9945C63.0487 18.1969 62.7648 17.5615 62.2104 17.1018C61.6426 16.6286 60.8854 16.3988 59.8983 16.3988H56.9643V21.5902H59.9389C60.9124 21.5767 61.6696 21.3468 62.224 20.8872Z" fill="#333A4E"/>
<path d="M66.8346 10.2881V22.2526H66.0639V10.2881H66.8346Z" fill="#333A4E"/>
<path d="M76.0966 22.2391L73.0273 17.1424H72.9597H70.4042V22.2391H69.6335V10.2881H72.9191C74.2442 10.2881 75.2447 10.5991 75.9073 11.2209C76.5698 11.8428 76.9078 12.681 76.9078 13.7085C76.9078 14.6278 76.6509 15.3849 76.1371 15.9797C75.6233 16.5746 74.8661 16.9396 73.8791 17.0748L77.016 22.2391H76.0966ZM70.4177 16.4934H72.9732C74.0278 16.4934 74.8121 16.2366 75.3394 15.7228C75.8667 15.2091 76.1236 14.5332 76.1236 13.695C76.1236 11.8699 75.0554 10.9506 72.9326 10.9506H70.4177V16.4934Z" fill="#333A4E"/>
<path d="M85.6559 22.2391L82.5867 17.1424H82.519H79.9636V22.2391H79.1929V10.2881H82.4785C83.8036 10.2881 84.8041 10.5991 85.4666 11.2209C86.1292 11.8428 86.4672 12.681 86.4672 13.7085C86.4672 14.6278 86.2103 15.3849 85.6965 15.9797C85.1827 16.5746 84.4255 16.9396 83.4385 17.0748L86.5754 22.2391H85.6559ZM79.9636 16.4934H82.519C83.5737 16.4934 84.3579 16.2366 84.8852 15.7228C85.4126 15.2091 85.6695 14.5332 85.6695 13.695C85.6695 11.8699 84.6013 10.9506 82.4785 10.9506H79.9636V16.4934Z" fill="#333A4E"/>
<path d="M89.523 10.2881V22.2526H88.7523V10.2881H89.523Z" fill="#333A4E"/>
<path d="M100.894 22.2391H100.123L93.1061 11.5454V22.2391H92.3354V10.3016H93.1061L100.123 20.9683V10.3016H100.894V22.2391Z" fill="#333A4E"/>
<path d="M113.536 13.8031C113.198 12.9108 112.63 12.1943 111.846 11.6536C111.062 11.1263 110.129 10.8559 109.047 10.8559C108.101 10.8559 107.249 11.0722 106.492 11.5184C105.735 11.9645 105.126 12.5864 104.68 13.4111C104.234 14.2222 104.018 15.1821 104.018 16.2771C104.018 17.3722 104.234 18.3185 104.68 19.1432C105.126 19.9544 105.721 20.5898 106.492 21.0224C107.249 21.455 108.101 21.6848 109.047 21.6848C109.953 21.6848 110.778 21.482 111.522 21.0765C112.265 20.6709 112.847 20.0896 113.293 19.3325C113.739 18.5754 113.983 17.6967 114.023 16.6827H108.696V16.0338H114.794V16.5475C114.753 17.6561 114.496 18.6565 113.996 19.5488C113.496 20.4411 112.82 21.1305 111.954 21.6307C111.089 22.131 110.116 22.3743 109.047 22.3743C107.952 22.3743 106.952 22.1174 106.073 21.6037C105.18 21.09 104.491 20.3599 103.99 19.4406C103.49 18.5213 103.247 17.4668 103.247 16.3042C103.247 15.128 103.49 14.0735 103.99 13.1407C104.491 12.2214 105.18 11.4913 106.073 10.9776C106.965 10.4639 107.952 10.207 109.047 10.207C110.332 10.207 111.441 10.5315 112.374 11.1669C113.306 11.8023 113.996 12.6945 114.429 13.8302H113.536V13.8031Z" fill="#333A4E"/>
</g>
<defs>
<clipPath id="clip0_2_77">
<rect width="121" height="32" fill="white"/>
</clipPath>
</defs>
</svg>
