<svg width="197" height="52" viewBox="0 0 197 52" fill="none" xmlns="http://www.w3.org/2000/svg">
<g clip-path="url(#clip0_8_193)">
<path d="M197 52H0V0H197V52ZM0.660409 51.3409H196.34V0.659062H0.660409V51.3409Z" fill="white"/>
<path d="M26.8566 22.4301C26.3063 20.9802 25.3817 19.8158 24.1049 18.9371C22.8281 18.0803 21.3092 17.6409 19.5481 17.6409C18.0071 17.6409 16.6203 17.9924 15.3875 18.7174C14.1548 19.4424 13.1641 20.4529 12.4377 21.793C11.7112 23.1111 11.359 24.6709 11.359 26.4504C11.359 28.2299 11.7112 29.7677 12.4377 31.1078C13.1641 32.4259 14.1327 33.4584 15.3875 34.1614C16.6203 34.8644 18.0071 35.2379 19.5481 35.2379C21.023 35.2379 22.3658 34.9084 23.5766 34.2493C24.7873 33.5902 25.7339 32.6456 26.4604 31.4153C27.1868 30.1851 27.5831 28.7571 27.6491 27.1095H18.9537V26.055H28.9039V26.8898C28.8378 28.6912 28.4196 30.3169 27.6051 31.7668C26.7906 33.2168 25.6899 34.3372 24.281 35.15C22.8722 35.9629 21.2872 36.3583 19.5481 36.3583C17.765 36.3583 16.136 35.9409 14.7051 35.1061C13.2522 34.2713 12.1295 33.0849 11.315 31.5911C10.5005 30.0972 10.1042 28.3836 10.1042 26.4943C10.1042 24.583 10.5005 22.8695 11.315 21.3536C12.1295 19.8598 13.2522 18.6735 14.7051 17.8386C16.158 17.0038 17.765 16.5864 19.5481 16.5864C21.6394 16.5864 23.4445 17.1137 24.9634 18.1462C26.4824 19.1787 27.6051 20.6287 28.3095 22.474H26.8566V22.4301Z" fill="white"/>
<path d="M43.1907 36.1386L38.1936 27.8564H38.0836H33.923V36.1386H32.6682V16.7183H38.0175C40.1749 16.7183 41.8039 17.2235 42.8825 18.2341C43.9612 19.2447 44.5115 20.6067 44.5115 22.2764C44.5115 23.7702 44.0933 25.0005 43.2568 25.9671C42.4203 26.9337 41.1875 27.5269 39.5805 27.7466L44.6877 36.1386H43.1907ZM33.923 26.8019H38.0836C39.8006 26.8019 41.0774 26.3845 41.936 25.5497C42.7945 24.7149 43.2127 23.6164 43.2127 22.2544C43.2127 19.2886 41.4737 17.7947 38.0175 17.7947H33.923V26.8019Z" fill="white"/>
<path d="M49.4866 17.7508V25.8573H57.2574V26.9118H49.4866V35.0841H58.0939V36.1386H48.2538V16.7183H58.0939V17.7728H49.4866V17.7508Z" fill="white"/>
<path d="M77.8622 22.4301C77.3119 20.9802 76.3873 19.8158 75.1105 18.9371C73.8337 18.0803 72.3148 17.6409 70.5537 17.6409C69.0127 17.6409 67.6259 17.9924 66.3931 18.7174C65.1603 19.4424 64.1697 20.4529 63.4433 21.793C62.7168 23.1111 62.3646 24.6709 62.3646 26.4504C62.3646 28.2299 62.7168 29.7677 63.4433 31.1078C64.1697 32.4259 65.1383 33.4584 66.3931 34.1614C67.6259 34.8644 69.0127 35.2379 70.5537 35.2379C72.0286 35.2379 73.3714 34.9084 74.5822 34.2493C75.7929 33.5902 76.7395 32.6456 77.466 31.4153C78.1924 30.1851 78.5887 28.7571 78.6547 27.1095H69.9813V26.055H79.9095V26.8898C79.8434 28.6912 79.4252 30.3169 78.6107 31.7668C77.7962 33.2168 76.6955 34.3372 75.2866 35.15C73.8777 35.9629 72.2928 36.3583 70.5537 36.3583C68.7706 36.3583 67.1416 35.9409 65.7107 35.1061C64.2578 34.2713 63.1351 33.0849 62.3206 31.5911C61.5061 30.0972 61.1098 28.3836 61.1098 26.4943C61.1098 24.583 61.5061 22.8695 62.3206 21.3536C63.1351 19.8598 64.2578 18.6735 65.7107 17.8386C67.1636 17.0038 68.7706 16.5864 70.5537 16.5864C72.645 16.5864 74.4501 17.1137 75.969 18.1462C77.488 19.1787 78.6107 20.6287 79.3151 22.474H77.8622V22.4301Z" fill="white"/>
<path d="M102.76 27.7466C103.53 28.6473 103.904 29.7018 103.904 30.932C103.904 31.9206 103.662 32.8213 103.2 33.6122C102.738 34.4031 102.033 35.0182 101.087 35.4576C100.162 35.9189 99.0173 36.1386 97.6965 36.1386H91.5107V16.7183H97.5864C99.5236 16.7183 100.999 17.1576 101.989 18.0584C102.98 18.9591 103.464 20.1014 103.464 21.5294C103.464 22.7597 103.134 23.7702 102.473 24.5391C101.813 25.308 100.955 25.8353 99.9199 26.0989C101.043 26.2966 101.989 26.8458 102.76 27.7466ZM92.7434 25.5497H97.6305C99.0834 25.5497 100.206 25.1982 100.999 24.5172C101.791 23.8361 102.187 22.8695 102.187 21.6612C102.187 20.4749 101.791 19.5522 101.021 18.8712C100.25 18.1902 99.0614 17.8387 97.4984 17.8387H92.7655V25.5497H92.7434ZM101.307 33.9418C102.209 33.1948 102.65 32.1623 102.65 30.8661C102.65 29.57 102.187 28.5374 101.285 27.7905C100.36 27.0216 99.1274 26.6481 97.5204 26.6481H92.7434V35.0841H97.5864C99.1714 35.0622 100.404 34.6887 101.307 33.9418Z" fill="white"/>
<path d="M108.813 16.7183V36.1606H107.559V16.7183H108.813Z" fill="white"/>
<path d="M123.893 36.1386L118.896 27.8564H118.786H114.625V36.1386H113.37V16.7183H118.72C120.877 16.7183 122.506 17.2235 123.585 18.2341C124.663 19.2447 125.214 20.6067 125.214 22.2764C125.214 23.7702 124.795 25.0005 123.959 25.9671C123.122 26.9337 121.889 27.5269 120.282 27.7466L125.39 36.1386H123.893ZM114.647 26.8019H118.808C120.525 26.8019 121.801 26.3845 122.66 25.5497C123.518 24.7149 123.937 23.6164 123.937 22.2544C123.937 19.2886 122.198 17.7947 118.742 17.7947H114.647V26.8019Z" fill="white"/>
<path d="M139.456 36.1386L134.459 27.8564H134.349H130.189V36.1386H128.934V16.7183H134.283C136.44 16.7183 138.069 17.2235 139.148 18.2341C140.227 19.2447 140.777 20.6067 140.777 22.2764C140.777 23.7702 140.359 25.0005 139.522 25.9671C138.686 26.9337 137.453 27.5269 135.846 27.7466L140.953 36.1386H139.456ZM130.189 26.8019H134.349C136.066 26.8019 137.343 26.3845 138.202 25.5497C139.06 24.7149 139.478 23.6164 139.478 22.2544C139.478 19.2886 137.739 17.7947 134.283 17.7947H130.189V26.8019Z" fill="white"/>
<path d="M145.752 16.7183V36.1606H144.497V16.7183H145.752Z" fill="white"/>
<path d="M164.266 36.1386H163.011L151.586 18.7614V36.1386H150.331V16.7402H151.586L163.011 34.0736V16.7402H164.266V36.1386Z" fill="white"/>
<path d="M184.848 22.4301C184.298 20.9802 183.374 19.8158 182.097 18.9371C180.82 18.0803 179.301 17.6409 177.54 17.6409C175.999 17.6409 174.612 17.9924 173.379 18.7174C172.147 19.4424 171.156 20.4529 170.43 21.793C169.703 23.1111 169.351 24.6709 169.351 26.4504C169.351 28.2299 169.703 29.7677 170.43 31.1078C171.156 32.4259 172.125 33.4584 173.379 34.1614C174.612 34.8644 175.999 35.2379 177.54 35.2379C179.015 35.2379 180.358 34.9084 181.568 34.2493C182.779 33.5902 183.726 32.6456 184.452 31.4153C185.179 30.1851 185.575 28.7571 185.641 27.1095H176.968V26.055H186.896V26.8898C186.83 28.6912 186.411 30.3169 185.597 31.7668C184.782 33.2168 183.682 34.3372 182.273 35.15C180.864 35.9629 179.279 36.3583 177.54 36.3583C175.757 36.3583 174.128 35.9409 172.697 35.1061C171.244 34.2713 170.121 33.0849 169.307 31.5911C168.492 30.0972 168.096 28.3836 168.096 26.4943C168.096 24.583 168.492 22.8695 169.307 21.3536C170.121 19.8598 171.244 18.6735 172.697 17.8386C174.15 17.0038 175.757 16.5864 177.54 16.5864C179.631 16.5864 181.436 17.1137 182.955 18.1462C184.474 19.1787 185.597 20.6287 186.301 22.474H184.848V22.4301Z" fill="white"/>
</g>
<defs>
<clipPath id="clip0_8_193">
<rect width="197" height="52" fill="white"/>
</clipPath>
</defs>
</svg>
