<?xml version="1.0" encoding="utf-8"?>
<!-- Generator: Adobe Illustrator 26.5.0, SVG Export Plug-In . SVG Version: 6.00 Build 0)  -->
<svg version="1.1" id="Layer_1" xmlns="http://www.w3.org/2000/svg" xmlns:xlink="http://www.w3.org/1999/xlink" x="0px" y="0px"
	 viewBox="0 0 813.9 801.2" style="enable-background:new 0 0 813.9 801.2;" xml:space="preserve">
<style type="text/css">
	.st0{fill:#DD2828;}
</style>
<circle cx="407" cy="400.6" r="400.6"/>
<path class="st0" d="M809,675.2c-3.3-3.2-7.3-4.8-12-4.8c-4.3,0-8.2,1.6-11.7,4.7c-2.5,2.3-5.6,8.6-9.1,18.8
	c-5.9,17.2-16.9,25.8-33.1,25.8c-16.8,0-33.3-8.6-49.6-25.8c-16.2-17.2-32.2-50.3-47.8-99.3c-17.4-54.9-29.6-89.9-36.7-105.2
	c-7-15.2-15.5-29-25.5-41.3c34.6-21.9,75.3-53.2,122.1-94c17.6-15.4,31.5-26.1,41.9-31.9c10.3-5.9,23.4-10.7,39.3-14.6l1.8-7.3
	c-21.5,2.3-40.4,3.5-56.8,3.5c-16,0-36.5-1.2-61.5-3.5l-3.8,16.4c18.6,0.4,29.8,1.2,33.8,2.5s6,2.7,6,4.2c0,1.4-0.7,3-2.1,5
	c-4.5,5.9-23.1,22.5-55.7,49.8c-17.8,14.8-36.3,28.9-55.6,42c-19.3,13.2-36.1,22.5-50.6,28l23.3-88.9c3.3-12.5,10.4-32.7,21.1-60.6
	h-19c-66.9,0-113.9,10.9-140.9,32.7c-27,21.8-40.5,46.2-40.5,73.4c0,7.2,1.2,13.3,3.7,18.4c-1.3,0-2.5,0.1-3.8,0.1
	c-11.5,0-24.5-1.9-39-5.6l13.2-121.3l22.9-169.3c2.5-18,6.8-39,12.6-63c-8.4,7.4-17.2,12.4-26.4,14.9c-5.9,1.8-20.3,3.6-43.4,5.6
	c-26.6,2-45.1,4.2-55.7,6.7c-20.5,4.7-37.6,11.5-51.3,20.4s-24.2,19.9-31.5,33.1s-11,26.8-11,40.9c0,10,2,17.4,6,22.4
	s9.3,7.5,16,7.5c4.7,0,8.7-1.7,12-5s5-7.1,5-11.4c0-3.3-1.4-8.6-4.1-15.8c-2.5-6.4-3.8-11.4-3.8-14.9c0-10.7,4.1-21.3,12.3-31.6
	c8.2-10.4,20.5-18.2,36.9-23.4c11.9-3.9,41.9-8,90.1-12.3c-35.3,39.8-81.5,103.5-138.5,191c-50.4,77.3-88.4,128.1-114.2,152.3
	c-15.8,14.8-30.3,22.3-43.4,22.3c-3.9,0-11.7-1.4-23.4-4.1c-4.7-1-8.4-1.5-11.1-1.5c-4.7,0-8.6,1.7-11.7,5S0,473.7,0,478.8
	c0,6.6,2.7,12.1,8.1,16.3s13.5,6.3,24.5,6.3c20.9,0,42.9-9.7,66.1-29.2c23.1-19.4,59.6-67,109.3-142.8c48-1.2,83.4-1.7,106.2-1.5
	c-3.3,29.1-6.4,49.6-9.4,61.5c-4.1,16.8-9.2,32.8-15.2,48c17-2.5,29.6-3.8,37.8-3.8c4.9,0,16.5,1,34.9,2.9
	c10.7,1.2,19.9,1.8,27.5,1.8c4.7,0,18.6-0.3,19.8-0.3c5.2,0,9.8-2,13.7-6s5.8-8.6,5.8-13.9c0-4.3-2.2-10-6.6-17
	c-4.8-7.8-7.2-14.3-7.2-19.3c0-14.3,8.7-27.1,26-38.7c22.4-15.2,52.9-24,91.5-26.4L497,452.3c-16.6,63.5-30.1,111-40.5,142.7
	c-4.5,14.1-10.5,24.4-18.1,30.9s-20.7,11.7-39.4,15.4l-1.8,14.1c35.1-6.3,60.7-9.4,76.9-9.4c8,0,18.2,0.7,30.7,2.1
	c11.9,1.4,21.1,2.1,27.5,2.1c1,0,3.4-0.1,7.3-0.3l3.8-14.6c-4.7,0.4-8.3,0.6-10.8,0.6c-10.6,0-22.5-2.8-35.8-8.5
	c1.6-10.4,5.5-27.5,11.7-51.6l31.3-119c12.9,16.4,23,32,30.2,46.7s17.5,42,30.8,81.9c14.3,42.2,28.2,73.3,41.9,93.5
	c13.7,20.1,28.8,34.9,45.3,44.2c16.5,9.4,34,14.1,52.3,14.1c21.3,0,38.9-5.5,52.8-16.4s20.8-22.3,20.8-34
	C814,682.3,812.3,678.4,809,675.2z M316.8,306c-8.4,0.6-16.3,0.9-23.7,0.9c-30,0-53.2-0.3-69.3-0.9l75.3-111.6
	c5.9-8.6,21.2-29.3,45.9-62.2C335.5,168.7,326.1,226.7,316.8,306z"/>
</svg>
